<svg role="img" class="sketch-svg" viewBox="0 0 248.0 341.0" xmlns="http://www.w3.org/2000/svg"><title>Cotas de corte en aristas libres</title><style>
.sketch-svg{background:#fff}
.sketch-svg .edge{fill:none;stroke:#23304a;stroke-width:1.6}
.sketch-svg .cut{stroke:#7a8aa3;stroke-width:1;stroke-dasharray:5 3}
.sketch-svg .scissor{stroke:#7a8aa3;fill:#7a8aa3;stroke-width:.6}
.sketch-svg .cota{stroke:#1B5E20;stroke-width:.45;fill:none}
.sketch-svg .cota-ext{stroke:#1B5E20;stroke-width:.3;fill:none}
.sketch-svg .cota-tick{stroke:#1B5E20;stroke-width:.45}
.sketch-svg .cota-lbl{fill:#1B5E20;font-size:5.5px;font-family:sans-serif}
.sketch-svg .cota-eje{stroke:#1B5E20;stroke-width:.35;stroke-dasharray:3 2;opacity:.45}
.sketch-svg .vista-tit{fill:#23304a;font-size:7px;font-weight:700;font-family:sans-serif}
.sketch-svg .vista-lbl{fill:#9aa3b2;font-size:5px;font-family:sans-serif}
.sketch-svg .leyenda-bg{fill:#fff;stroke:#ccc}
.sketch-svg .leyenda-tit{fill:#23304a;font-size:5px;font-weight:700;font-family:sans-serif}
.sketch-svg .leyenda-lbl{fill:#23304a;font-size:5px;font-family:sans-serif}
.sketch-svg text{font-family:sans-serif}</style><rect class="edge" x="74.0" y="82.0" width="144.0" height="144.0"/><line class="cut" x1="102.8" y1="82.0" x2="189.2" y2="226.0"/><circle class="scissor" cx="141.2" cy="151.3" r="1.6"/><circle class="scissor" cx="141.2" cy="156.7" r="1.6"/><line class="scissor" x1="141.2" y1="151.3" x2="151.6" y2="155.3"/><line class="scissor" x1="141.2" y1="156.7" x2="151.6" y2="152.7"/><circle class="cut-piv" cx="102.8" cy="82.0" r="2.6"/><line class="cut-piv" x1="97.8" y1="82.0" x2="107.8" y2="82.0"/><line class="cut-piv" x1="102.8" y1="77.0" x2="102.8" y2="87.0"/><text class="cut-lbl" x="150.0" y="150.0">59.036°</text><line class="cota-eje" x1="146.0" y1="82.0" x2="146.0" y2="226.0"/><line class="cota-eje" x1="74.0" y1="154.0" x2="218.0" y2="154.0"/><line class="cota-ext" x1="74.0" y1="82.0" x2="74.0" y2="49.0"/><line class="cota-ext" x1="218.0" y1="82.0" x2="218.0" y2="49.0"/><line class="cota" x1="74.0" y1="46.0" x2="218.0" y2="46.0"/><line class="cota-tick" x1="74.0" y1="43.0" x2="74.0" y2="49.0"/><line class="cota-tick" x1="218.0" y1="43.0" x2="218.0" y2="49.0"/><text class="cota-lbl" x="146.0" y="44.0" text-anchor="middle">3m</text><line class="cota-ext" x1="74.0" y1="82.0" x2="41.0" y2="82.0"/><line class="cota-ext" x1="74.0" y1="226.0" x2="41.0" y2="226.0"/><line class="cota" x1="38.0" y1="82.0" x2="38.0" y2="226.0"/><line class="cota-tick" x1="35.0" y1="82.0" x2="41.0" y2="82.0"/><line class="cota-tick" x1="35.0" y1="226.0" x2="41.0" y2="226.0"/><text class="cota-lbl" x="35.0" y="154.0" text-anchor="middle" transform="rotate(-90 35.0 154.0)">3m</text><line class="cota-ext" x1="74.0" y1="226.0" x2="74.0" y2="239.0"/><line class="cota-ext" x1="102.8" y1="226.0" x2="102.8" y2="239.0"/><line class="cota" x1="74.0" y1="242.0" x2="102.8" y2="242.0"/><line class="cota-tick" x1="74.0" y1="239.0" x2="74.0" y2="245.0"/><line class="cota-tick" x1="102.8" y1="239.0" x2="102.8" y2="245.0"/><text class="cota-lbl" x="88.4" y="249.0" text-anchor="middle">0.6m</text><line class="cota-ext" x1="74.0" y1="226.0" x2="74.0" y2="257.0"/><line class="cota-ext" x1="189.2" y1="226.0" x2="189.2" y2="257.0"/><line class="cota" x1="74.0" y1="260.0" x2="189.2" y2="260.0"/><line class="cota-tick" x1="74.0" y1="257.0" x2="74.0" y2="263.0"/><line class="cota-tick" x1="189.2" y1="257.0" x2="189.2" y2="263.0"/><text class="cota-lbl" x="131.6" y="267.0" text-anchor="middle">2.4m</text><text class="vista-tit" x="146.0" y="10" text-anchor="middle">VISTA FRONTAL</text><text class="vista-lbl" x="146.0" y="20" text-anchor="middle">SUPERIOR</text><text class="vista-lbl" x="146.0" y="292.0" text-anchor="middle">INFERIOR</text><text class="vista-lbl" x="10" y="154.0" text-anchor="middle" transform="rotate(-90 10 154.0)">LADO IZQUIERDO</text><text class="vista-lbl" x="239.0" y="154.0" text-anchor="middle" transform="rotate(-90 239.0 154.0)">LADO DERECHO</text><rect class="leyenda-bg" x="2.0" y="300.0" width="96.0" height="37.0" rx="3"/><text class="leyenda-tit" x="6.0" y="309.0">SIMBOLOGÍA</text><line class="cut" x1="7.0" y1="318.5" x2="19.0" y2="318.5"/><line class="cut-hatch" x1="9.4" y1="316.5" x2="11.0" y2="320.5"/><line class="cut-hatch" x1="13.0" y1="316.5" x2="14.6" y2="320.5"/><line class="cut-hatch" x1="16.6" y1="316.5" x2="18.2" y2="320.5"/><text class="leyenda-lbl" x="24.0" y="320.9">Calado / corte</text><circle class="cut-piv" cx="13.0" cy="329.5" r="2.2"/><line class="cut-piv" x1="8.0" y1="329.5" x2="18.0" y2="329.5"/><line class="cut-piv" x1="13.0" y1="324.5" x2="13.0" y2="334.5"/><text class="leyenda-lbl" x="24.0" y="331.9">Pivote de giro</text></svg>