<svg role="img" class="sketch-svg" viewBox="0 0 360.0 326.7" xmlns="http://www.w3.org/2000/svg"><title>Resumen de straps junto a la simbología</title><style>
.sketch-svg{background:#fff}
.sketch-svg .edge{fill:none;stroke:#23304a;stroke-width:1.6}
.sketch-svg .cut{stroke:#7a8aa3;stroke-width:1;stroke-dasharray:5 3}
.sketch-svg .cut-hatch{stroke:#7a8aa3;stroke-width:.6}
.sketch-svg .scissor{stroke:#7a8aa3;fill:#7a8aa3;stroke-width:.6}
.sketch-svg .cota{stroke:#1B5E20;stroke-width:.45;fill:none}
.sketch-svg .cota-ext{stroke:#1B5E20;stroke-width:.3;fill:none}
.sketch-svg .cota-tick{stroke:#1B5E20;stroke-width:.45}
.sketch-svg .cota-lbl{fill:#1B5E20;font-size:5.5px;font-family:sans-serif}
.sketch-svg .cota-eje{stroke:#1B5E20;stroke-width:.35;stroke-dasharray:3 2;opacity:.45}
.sketch-svg .strap{fill:#e23b2e;fill-opacity:.10;stroke:#d8443a;stroke-width:.5}
.sketch-svg .strap-mid{stroke:#d8443a;stroke-width:.4;stroke-dasharray:4 3;opacity:.45}
.sketch-svg .strap-rem{stroke:#d8443a;stroke-width:.7;fill:none}
.sketch-svg .strap-lbl{fill:#b3261e;font-size:6.5px;font-weight:600;font-family:sans-serif}
.sketch-svg .vista-tit{fill:#23304a;font-size:7px;font-weight:700;font-family:sans-serif}
.sketch-svg .vista-lbl{fill:#9aa3b2;font-size:5px;font-family:sans-serif}
.sketch-svg .leyenda-bg{fill:#fff;stroke:#ccc}
.sketch-svg .leyenda-tit{fill:#23304a;font-size:5px;font-weight:700;font-family:sans-serif}
.sketch-svg .leyenda-lbl{fill:#23304a;font-size:5px;font-family:sans-serif}
.sketch-svg text{font-family:sans-serif}
</style><rect class="edge" x="92.0" y="100.0" width="238.0" height="158.7"/><polygon class="strap" points="94.4,100.0 94.4,90.5 89.6,90.5 89.6,100.0"/><line class="strap-mid" x1="92.0" y1="100.0" x2="92.0" y2="90.5"/><polyline class="strap-rem" points="94.4,100.0 92.8,97.8 91.2,102.2 89.6,100.0"/><polyline class="strap-rem" points="94.4,90.5 92.8,88.3 91.2,92.7 89.6,90.5"/><text class="strap-lbl" x="102.4" y="95.2" text-anchor="middle">Strap 0.12 m</text><polygon class="strap" points="138.0,100.0 138.0,90.5 133.3,90.5 133.3,100.0"/><line class="strap-mid" x1="135.6" y1="100.0" x2="135.6" y2="90.5"/><polyline class="strap-rem" points="138.0,100.0 136.4,97.8 134.8,102.2 133.3,100.0"/><polyline class="strap-rem" points="138.0,90.5 136.4,88.3 134.8,92.7 133.3,90.5"/><text class="strap-lbl" x="146.0" y="95.2" text-anchor="middle">Strap 0.12 m</text><polygon class="strap" points="181.6,100.0 181.6,90.5 176.9,90.5 176.9,100.0"/><line class="strap-mid" x1="179.3" y1="100.0" x2="179.3" y2="90.5"/><polyline class="strap-rem" points="181.6,100.0 180.1,97.8 178.5,102.2 176.9,100.0"/><polyline class="strap-rem" points="181.6,90.5 180.1,88.3 178.5,92.7 176.9,90.5"/><text class="strap-lbl" x="189.6" y="95.2" text-anchor="middle">Strap 0.12 m</text><polygon class="strap" points="225.3,100.0 225.3,90.5 220.5,90.5 220.5,100.0"/><line class="strap-mid" x1="222.9" y1="100.0" x2="222.9" y2="90.5"/><polyline class="strap-rem" points="225.3,100.0 223.7,97.8 222.1,102.2 220.5,100.0"/><polyline class="strap-rem" points="225.3,90.5 223.7,88.3 222.1,92.7 220.5,90.5"/><text class="strap-lbl" x="233.3" y="95.2" text-anchor="middle">Strap 0.12 m</text><polygon class="strap" points="268.9,100.0 268.9,90.5 264.2,90.5 264.2,100.0"/><line class="strap-mid" x1="266.5" y1="100.0" x2="266.5" y2="90.5"/><polyline class="strap-rem" points="268.9,100.0 267.3,97.8 265.7,102.2 264.2,100.0"/><polyline class="strap-rem" points="268.9,90.5 267.3,88.3 265.7,92.7 264.2,90.5"/><text class="strap-lbl" x="276.9" y="95.2" text-anchor="middle">Strap 0.12 m</text><polygon class="strap" points="300.6,100.0 300.6,90.5 295.9,90.5 295.9,100.0"/><line class="strap-mid" x1="298.3" y1="100.0" x2="298.3" y2="90.5"/><polyline class="strap-rem" points="300.6,100.0 299.1,97.8 297.5,102.2 295.9,100.0"/><polyline class="strap-rem" points="300.6,90.5 299.1,88.3 297.5,92.7 295.9,90.5"/><text class="strap-lbl" x="308.6" y="95.2" text-anchor="middle">Strap 0.12 m</text><polygon class="strap" points="332.4,100.0 332.4,90.5 327.6,90.5 327.6,100.0"/><line class="strap-mid" x1="330.0" y1="100.0" x2="330.0" y2="90.5"/><polyline class="strap-rem" points="332.4,100.0 330.8,97.8 329.2,102.2 327.6,100.0"/><polyline class="strap-rem" points="332.4,90.5 330.8,88.3 329.2,92.7 327.6,90.5"/><text class="strap-lbl" x="340.4" y="95.2" text-anchor="middle">Strap 0.12 m</text><polygon class="strap" points="125.7,169.0 125.7,189.6 121.8,189.6 121.8,169.0"/><line class="strap-mid" x1="123.7" y1="169.0" x2="123.7" y2="189.6"/><polyline class="strap-rem" points="125.7,169.0 124.4,166.8 123.1,171.2 121.8,169.0"/><polyline class="strap-rem" points="125.7,189.6 124.4,187.4 123.1,191.8 121.8,189.6"/><text class="strap-lbl" x="133.7" y="179.3" text-anchor="middle">Corte central 0.26 m</text><polygon class="strap" points="169.4,169.0 169.4,189.6 165.4,189.6 165.4,169.0"/><line class="strap-mid" x1="167.4" y1="169.0" x2="167.4" y2="189.6"/><polyline class="strap-rem" points="169.4,169.0 168.0,166.8 166.7,171.2 165.4,169.0"/><polyline class="strap-rem" points="169.4,189.6 168.0,187.4 166.7,191.8 165.4,189.6"/><text class="strap-lbl" x="177.4" y="179.3" text-anchor="middle">Corte central 0.26 m</text><polygon class="strap" points="213.0,169.0 213.0,189.6 209.0,189.6 209.0,169.0"/><line class="strap-mid" x1="211.0" y1="169.0" x2="211.0" y2="189.6"/><polyline class="strap-rem" points="213.0,169.0 211.7,166.8 210.3,171.2 209.0,169.0"/><polyline class="strap-rem" points="213.0,189.6 211.7,187.4 210.3,191.8 209.0,189.6"/><text class="strap-lbl" x="221.0" y="179.3" text-anchor="middle">Corte central 0.26 m</text><polygon class="strap" points="256.6,169.0 256.6,189.6 252.7,189.6 252.7,169.0"/><line class="strap-mid" x1="254.6" y1="169.0" x2="254.6" y2="189.6"/><polyline class="strap-rem" points="256.6,169.0 255.3,166.8 254.0,171.2 252.7,169.0"/><polyline class="strap-rem" points="256.6,189.6 255.3,187.4 254.0,191.8 252.7,189.6"/><text class="strap-lbl" x="264.6" y="179.3" text-anchor="middle">Corte central 0.26 m</text><polygon class="strap" points="300.3,169.0 300.3,189.6 296.3,189.6 296.3,169.0"/><line class="strap-mid" x1="298.3" y1="169.0" x2="298.3" y2="189.6"/><polyline class="strap-rem" points="300.3,169.0 298.9,166.8 297.6,171.2 296.3,169.0"/><polyline class="strap-rem" points="300.3,189.6 298.9,187.4 297.6,191.8 296.3,189.6"/><text class="strap-lbl" x="308.3" y="179.3" text-anchor="middle">Corte central 0.26 m</text><line class="cut" x1="123.7" y1="179.3" x2="298.3" y2="179.3"/><circle class="scissor" cx="206.2" cy="176.6" r="1.6"/><circle class="scissor" cx="206.2" cy="182.1" r="1.6"/><line class="scissor" x1="206.2" y1="176.6" x2="216.6" y2="180.6"/><line class="scissor" x1="206.2" y1="182.1" x2="216.6" y2="178.1"/><line class="cota-eje" x1="211.0" y1="100.0" x2="211.0" y2="258.7"/><line class="cota-eje" x1="92.0" y1="179.3" x2="330.0" y2="179.3"/><line class="cota-ext" x1="92.0" y1="100.0" x2="92.0" y2="49.0"/><line class="cota-ext" x1="330.0" y1="100.0" x2="330.0" y2="49.0"/><line class="cota" x1="92.0" y1="46.0" x2="330.0" y2="46.0"/><line class="cota-tick" x1="92.0" y1="43.0" x2="92.0" y2="49.0"/><line class="cota-tick" x1="330.0" y1="43.0" x2="330.0" y2="49.0"/><text class="cota-lbl" x="211.0" y="44.0" text-anchor="middle">3m</text><line class="cota-ext" x1="92.0" y1="100.0" x2="41.0" y2="100.0"/><line class="cota-ext" x1="92.0" y1="258.7" x2="41.0" y2="258.7"/><line class="cota" x1="38.0" y1="100.0" x2="38.0" y2="258.7"/><line class="cota-tick" x1="35.0" y1="100.0" x2="41.0" y2="100.0"/><line class="cota-tick" x1="35.0" y1="258.7" x2="41.0" y2="258.7"/><text class="cota-lbl" x="35.0" y="179.3" text-anchor="middle" transform="rotate(-90 35.0 179.3)">2m</text><line class="cota-ext" x1="123.7" y1="100.0" x2="123.7" y2="87.0"/><line class="cota-ext" x1="298.3" y1="100.0" x2="298.3" y2="87.0"/><line class="cota" x1="123.7" y1="84.0" x2="298.3" y2="84.0"/><line class="cota-tick" x1="123.7" y1="81.0" x2="123.7" y2="87.0"/><line class="cota-tick" x1="298.3" y1="81.0" x2="298.3" y2="87.0"/><text class="cota-lbl" x="211.0" y="82.0" text-anchor="middle">2.2m</text><line class="cota-ext" x1="92.0" y1="179.3" x2="79.0" y2="179.3"/><line class="cota-ext" x1="92.0" y1="179.3" x2="79.0" y2="179.3"/><line class="cota" x1="76.0" y1="179.3" x2="76.0" y2="179.3"/><line class="cota-tick" x1="73.0" y1="179.3" x2="79.0" y2="179.3"/><line class="cota-tick" x1="73.0" y1="179.3" x2="79.0" y2="179.3"/><text class="cota-lbl" x="73.0" y="179.3" text-anchor="middle" transform="rotate(-90 73.0 179.3)">0m</text><line class="cota-ext" x1="211.0" y1="100.0" x2="211.0" y2="87.0"/><line class="cota-ext" x1="298.3" y1="100.0" x2="298.3" y2="87.0"/><line class="cota" x1="211.0" y1="84.0" x2="298.3" y2="84.0"/><line class="cota-tick" x1="211.0" y1="81.0" x2="211.0" y2="87.0"/><line class="cota-tick" x1="298.3" y1="81.0" x2="298.3" y2="87.0"/><text class="cota-lbl" x="254.6" y="82.0" text-anchor="middle">1.1m</text><text class="vista-tit" x="211.0" y="10" text-anchor="middle">VISTA FRONTAL</text><text class="vista-lbl" x="211.0" y="20" text-anchor="middle">SUPERIOR</text><text class="vista-lbl" x="211.0" y="276.7" text-anchor="middle">INFERIOR</text><text class="vista-lbl" x="10" y="179.3" text-anchor="middle" transform="rotate(-90 10 179.3)">LADO IZQUIERDO</text><text class="vista-lbl" x="351.0" y="179.3" text-anchor="middle" transform="rotate(-90 351.0 179.3)">LADO DERECHO</text><rect class="leyenda-bg" x="2.0" y="284.7" width="96.0" height="37.0" rx="3"/><text class="leyenda-tit" x="6.0" y="293.7">SIMBOLOGÍA</text><line class="cut" x1="7.0" y1="303.2" x2="19.0" y2="303.2"/><line class="cut-hatch" x1="9.4" y1="301.2" x2="11.0" y2="305.2"/><line class="cut-hatch" x1="13.0" y1="301.2" x2="14.6" y2="305.2"/><line class="cut-hatch" x1="16.6" y1="301.2" x2="18.2" y2="305.2"/><text class="leyenda-lbl" x="24.0" y="305.6">Calado / corte</text><text class="leyenda-lbl" x="24.0" y="316.6">Strap / cinta (banda)</text><rect class="leyenda-bg" x="104.0" y="284.7" width="132.0" height="42.0" rx="3"/><text class="leyenda-tit" x="108.0" y="293.7">STRAPS POR ARISTA</text><text class="leyenda-lbl" x="108.0" y="303.6">Corte central</text><text class="leyenda-lbl" x="232.0" y="303.6" text-anchor="end">5 × 0.26 m × 5 cm</text><text class="leyenda-lbl" x="108.0" y="312.6">Superior</text><text class="leyenda-lbl" x="232.0" y="312.6" text-anchor="end">7 × 0.12 m × 6 cm</text><text class="leyenda-tit" x="108.0" y="321.6">TOTAL</text><text class="leyenda-tit" x="232.0" y="321.6" text-anchor="end">12 cinta(s)</text></svg>